%TF.GenerationSoftware,KiCad,Pcbnew,(6.0.4)*%
%TF.CreationDate,2023-03-31T12:06:15-04:00*%
%TF.ProjectId,switches,73776974-6368-4657-932e-6b696361645f,rev?*%
%TF.SameCoordinates,Original*%
%TF.FileFunction,Copper,L2,Bot*%
%TF.FilePolarity,Positive*%
%FSLAX46Y46*%
G04 Gerber Fmt 4.6, Leading zero omitted, Abs format (unit mm)*
G04 Created by KiCad (PCBNEW (6.0.4)) date 2023-03-31 12:06:15*
%MOMM*%
%LPD*%
G01*
G04 APERTURE LIST*
%TA.AperFunction,ComponentPad*%
%ADD10C,3.800000*%
%TD*%
%TA.AperFunction,SMDPad,CuDef*%
%ADD11C,6.500000*%
%TD*%
%TA.AperFunction,ComponentPad*%
%ADD12C,1.150000*%
%TD*%
%TA.AperFunction,ComponentPad*%
%ADD13R,1.150000X1.150000*%
%TD*%
%TA.AperFunction,Conductor*%
%ADD14C,0.750000*%
%TD*%
G04 APERTURE END LIST*
D10*
%TO.P,REF\u002A\u002A,1*%
%TO.N,N/C*%
X150534000Y-56325000D03*
%TD*%
D11*
%TO.P,SW3,2,2*%
%TO.N,Net-(J6-Pad1)*%
X174500000Y-67125000D03*
%TD*%
%TO.P,SW2,2,2*%
%TO.N,Net-(J4-Pad1)*%
X165500000Y-67125000D03*
%TD*%
D10*
%TO.P,REF\u002A\u002A,1*%
%TO.N,N/C*%
X150534000Y-76375000D03*
%TD*%
D12*
%TO.P,J6,2,Pin_2*%
%TO.N,Net-(D3-Pad1)*%
X173459000Y-57100000D03*
D13*
%TO.P,J6,1,Pin_1*%
%TO.N,Net-(J6-Pad1)*%
X175466000Y-57100000D03*
%TD*%
%TO.P,J5,1,Pin_1*%
%TO.N,Net-(J5-Pad1)*%
X173534000Y-75650000D03*
D12*
%TO.P,J5,2,Pin_2*%
%TO.N,Net-(D3-Pad1)*%
X175541000Y-75650000D03*
%TD*%
D13*
%TO.P,J4,1,Pin_1*%
%TO.N,Net-(J4-Pad1)*%
X166466000Y-57100000D03*
D12*
%TO.P,J4,2,Pin_2*%
%TO.N,Net-(D2-Pad1)*%
X164459000Y-57100000D03*
%TD*%
D10*
%TO.P,REF\u002A\u002A,1*%
%TO.N,N/C*%
X180534000Y-56375000D03*
%TD*%
D11*
%TO.P,SW1,2,2*%
%TO.N,Net-(J2-Pad1)*%
X156500000Y-67125000D03*
%TD*%
D13*
%TO.P,J3,1,Pin_1*%
%TO.N,Net-(J3-Pad1)*%
X164534000Y-75650000D03*
D12*
%TO.P,J3,2,Pin_2*%
%TO.N,Net-(D2-Pad1)*%
X166541000Y-75650000D03*
%TD*%
D13*
%TO.P,J2,1,Pin_1*%
%TO.N,Net-(J2-Pad1)*%
X157466000Y-57100000D03*
D12*
%TO.P,J2,2,Pin_2*%
%TO.N,Net-(D1-Pad1)*%
X155459000Y-57100000D03*
%TD*%
D10*
%TO.P,REF\u002A\u002A,1*%
%TO.N,N/C*%
X180534000Y-76375000D03*
%TD*%
D12*
%TO.P,J1,2,Pin_2*%
%TO.N,Net-(D1-Pad1)*%
X157541000Y-75650000D03*
D13*
%TO.P,J1,1,Pin_1*%
%TO.N,Net-(J1-Pad1)*%
X155534000Y-75650000D03*
%TD*%
D14*
%TO.N,Net-(D1-Pad1)*%
X152075489Y-60483511D02*
X155459000Y-57100000D01*
X157541000Y-74782000D02*
X152075489Y-69316489D01*
X152075489Y-69316489D02*
X152075489Y-60483511D01*
X157541000Y-75650000D02*
X157541000Y-74782000D01*
%TO.N,Net-(D2-Pad1)*%
X164459000Y-57100000D02*
X164459000Y-57200000D01*
X164459000Y-57200000D02*
X161075489Y-60583511D01*
X161075489Y-60583511D02*
X161075489Y-69166489D01*
X161075489Y-69166489D02*
X166541000Y-74632000D01*
X166541000Y-74632000D02*
X166541000Y-75650000D01*
%TO.N,Net-(D3-Pad1)*%
X170075489Y-69166489D02*
X175541000Y-74632000D01*
X173459000Y-57200000D02*
X170075489Y-60583511D01*
X170075489Y-60583511D02*
X170075489Y-69166489D01*
X173459000Y-57100000D02*
X173459000Y-57200000D01*
X175541000Y-74632000D02*
X175541000Y-75650000D01*
%TO.N,Net-(J2-Pad1)*%
X156500000Y-66500000D02*
X157466000Y-65534000D01*
X157466000Y-65534000D02*
X157466000Y-57100000D01*
%TO.N,Net-(J4-Pad1)*%
X165659000Y-66500000D02*
X166466000Y-65693000D01*
X165500000Y-66500000D02*
X165659000Y-66500000D01*
X166466000Y-65693000D02*
X166466000Y-57100000D01*
%TO.N,Net-(J6-Pad1)*%
X175466000Y-57100000D02*
X175466000Y-65534000D01*
X175466000Y-65534000D02*
X174500000Y-66500000D01*
%TD*%
M02*
