%TF.GenerationSoftware,KiCad,Pcbnew,(6.0.4)*%
%TF.CreationDate,2023-03-31T12:06:15-04:00*%
%TF.ProjectId,switches,73776974-6368-4657-932e-6b696361645f,rev?*%
%TF.SameCoordinates,Original*%
%TF.FileFunction,Legend,Top*%
%TF.FilePolarity,Positive*%
%FSLAX46Y46*%
G04 Gerber Fmt 4.6, Leading zero omitted, Abs format (unit mm)*
G04 Created by KiCad (PCBNEW (6.0.4)) date 2023-03-31 12:06:15*
%MOMM*%
%LPD*%
G01*
G04 APERTURE LIST*
%ADD10C,0.150000*%
%ADD11C,0.120000*%
%ADD12C,0.200000*%
%ADD13C,0.127000*%
G04 APERTURE END LIST*
D10*
X147986380Y-72351190D02*
X147986380Y-72160714D01*
X148034000Y-72065476D01*
X148129238Y-71970238D01*
X148319714Y-71922619D01*
X148653047Y-71922619D01*
X148843523Y-71970238D01*
X148938761Y-72065476D01*
X148986380Y-72160714D01*
X148986380Y-72351190D01*
X148938761Y-72446428D01*
X148843523Y-72541666D01*
X148653047Y-72589285D01*
X148319714Y-72589285D01*
X148129238Y-72541666D01*
X148034000Y-72446428D01*
X147986380Y-72351190D01*
X148986380Y-71017857D02*
X148986380Y-71494047D01*
X147986380Y-71494047D01*
X147986380Y-70827380D02*
X148986380Y-70494047D01*
X147986380Y-70160714D01*
X147986380Y-69970238D02*
X147986380Y-69398809D01*
X148986380Y-69684523D02*
X147986380Y-69684523D01*
X148938761Y-68351190D02*
X148986380Y-68208333D01*
X148986380Y-67970238D01*
X148938761Y-67875000D01*
X148891142Y-67827380D01*
X148795904Y-67779761D01*
X148700666Y-67779761D01*
X148605428Y-67827380D01*
X148557809Y-67875000D01*
X148510190Y-67970238D01*
X148462571Y-68160714D01*
X148414952Y-68255952D01*
X148367333Y-68303571D01*
X148272095Y-68351190D01*
X148176857Y-68351190D01*
X148081619Y-68303571D01*
X148034000Y-68255952D01*
X147986380Y-68160714D01*
X147986380Y-67922619D01*
X148034000Y-67779761D01*
X148319714Y-67446428D02*
X148986380Y-67255952D01*
X148510190Y-67065476D01*
X148986380Y-66875000D01*
X148319714Y-66684523D01*
X148986380Y-66303571D02*
X148319714Y-66303571D01*
X147986380Y-66303571D02*
X148034000Y-66351190D01*
X148081619Y-66303571D01*
X148034000Y-66255952D01*
X147986380Y-66303571D01*
X148081619Y-66303571D01*
X148319714Y-65970238D02*
X148319714Y-65589285D01*
X147986380Y-65827380D02*
X148843523Y-65827380D01*
X148938761Y-65779761D01*
X148986380Y-65684523D01*
X148986380Y-65589285D01*
X148938761Y-64827380D02*
X148986380Y-64922619D01*
X148986380Y-65113095D01*
X148938761Y-65208333D01*
X148891142Y-65255952D01*
X148795904Y-65303571D01*
X148510190Y-65303571D01*
X148414952Y-65255952D01*
X148367333Y-65208333D01*
X148319714Y-65113095D01*
X148319714Y-64922619D01*
X148367333Y-64827380D01*
X148986380Y-64398809D02*
X147986380Y-64398809D01*
X148986380Y-63970238D02*
X148462571Y-63970238D01*
X148367333Y-64017857D01*
X148319714Y-64113095D01*
X148319714Y-64255952D01*
X148367333Y-64351190D01*
X148414952Y-64398809D01*
X148986380Y-62732142D02*
X147986380Y-62732142D01*
X147986380Y-62351190D01*
X148034000Y-62255952D01*
X148081619Y-62208333D01*
X148176857Y-62160714D01*
X148319714Y-62160714D01*
X148414952Y-62208333D01*
X148462571Y-62255952D01*
X148510190Y-62351190D01*
X148510190Y-62732142D01*
X148891142Y-61160714D02*
X148938761Y-61208333D01*
X148986380Y-61351190D01*
X148986380Y-61446428D01*
X148938761Y-61589285D01*
X148843523Y-61684523D01*
X148748285Y-61732142D01*
X148557809Y-61779761D01*
X148414952Y-61779761D01*
X148224476Y-61732142D01*
X148129238Y-61684523D01*
X148034000Y-61589285D01*
X147986380Y-61446428D01*
X147986380Y-61351190D01*
X148034000Y-61208333D01*
X148081619Y-61160714D01*
X148462571Y-60398809D02*
X148510190Y-60255952D01*
X148557809Y-60208333D01*
X148653047Y-60160714D01*
X148795904Y-60160714D01*
X148891142Y-60208333D01*
X148938761Y-60255952D01*
X148986380Y-60351190D01*
X148986380Y-60732142D01*
X147986380Y-60732142D01*
X147986380Y-60398809D01*
X148034000Y-60303571D01*
X148081619Y-60255952D01*
X148176857Y-60208333D01*
X148272095Y-60208333D01*
X148367333Y-60255952D01*
X148414952Y-60303571D01*
X148462571Y-60398809D01*
X148462571Y-60732142D01*
%TO.C,R1*%
X159367333Y-64427380D02*
X159034000Y-63951190D01*
X158795904Y-64427380D02*
X158795904Y-63427380D01*
X159176857Y-63427380D01*
X159272095Y-63475000D01*
X159319714Y-63522619D01*
X159367333Y-63617857D01*
X159367333Y-63760714D01*
X159319714Y-63855952D01*
X159272095Y-63903571D01*
X159176857Y-63951190D01*
X158795904Y-63951190D01*
X160319714Y-64427380D02*
X159748285Y-64427380D01*
X160034000Y-64427380D02*
X160034000Y-63427380D01*
X159938761Y-63570238D01*
X159843523Y-63665476D01*
X159748285Y-63713095D01*
%TO.C,SW3*%
X177688761Y-72458333D02*
X177736380Y-72315476D01*
X177736380Y-72077380D01*
X177688761Y-71982142D01*
X177641142Y-71934523D01*
X177545904Y-71886904D01*
X177450666Y-71886904D01*
X177355428Y-71934523D01*
X177307809Y-71982142D01*
X177260190Y-72077380D01*
X177212571Y-72267857D01*
X177164952Y-72363095D01*
X177117333Y-72410714D01*
X177022095Y-72458333D01*
X176926857Y-72458333D01*
X176831619Y-72410714D01*
X176784000Y-72363095D01*
X176736380Y-72267857D01*
X176736380Y-72029761D01*
X176784000Y-71886904D01*
X176736380Y-71553571D02*
X177736380Y-71315476D01*
X177022095Y-71125000D01*
X177736380Y-70934523D01*
X176736380Y-70696428D01*
X176736380Y-70410714D02*
X176736380Y-69791666D01*
X177117333Y-70125000D01*
X177117333Y-69982142D01*
X177164952Y-69886904D01*
X177212571Y-69839285D01*
X177307809Y-69791666D01*
X177545904Y-69791666D01*
X177641142Y-69839285D01*
X177688761Y-69886904D01*
X177736380Y-69982142D01*
X177736380Y-70267857D01*
X177688761Y-70363095D01*
X177641142Y-70410714D01*
%TO.C,SW2*%
X168688761Y-72458333D02*
X168736380Y-72315476D01*
X168736380Y-72077380D01*
X168688761Y-71982142D01*
X168641142Y-71934523D01*
X168545904Y-71886904D01*
X168450666Y-71886904D01*
X168355428Y-71934523D01*
X168307809Y-71982142D01*
X168260190Y-72077380D01*
X168212571Y-72267857D01*
X168164952Y-72363095D01*
X168117333Y-72410714D01*
X168022095Y-72458333D01*
X167926857Y-72458333D01*
X167831619Y-72410714D01*
X167784000Y-72363095D01*
X167736380Y-72267857D01*
X167736380Y-72029761D01*
X167784000Y-71886904D01*
X167736380Y-71553571D02*
X168736380Y-71315476D01*
X168022095Y-71125000D01*
X168736380Y-70934523D01*
X167736380Y-70696428D01*
X167831619Y-70363095D02*
X167784000Y-70315476D01*
X167736380Y-70220238D01*
X167736380Y-69982142D01*
X167784000Y-69886904D01*
X167831619Y-69839285D01*
X167926857Y-69791666D01*
X168022095Y-69791666D01*
X168164952Y-69839285D01*
X168736380Y-70410714D01*
X168736380Y-69791666D01*
%TO.C,R3*%
X177367333Y-64427380D02*
X177034000Y-63951190D01*
X176795904Y-64427380D02*
X176795904Y-63427380D01*
X177176857Y-63427380D01*
X177272095Y-63475000D01*
X177319714Y-63522619D01*
X177367333Y-63617857D01*
X177367333Y-63760714D01*
X177319714Y-63855952D01*
X177272095Y-63903571D01*
X177176857Y-63951190D01*
X176795904Y-63951190D01*
X177700666Y-63427380D02*
X178319714Y-63427380D01*
X177986380Y-63808333D01*
X178129238Y-63808333D01*
X178224476Y-63855952D01*
X178272095Y-63903571D01*
X178319714Y-63998809D01*
X178319714Y-64236904D01*
X178272095Y-64332142D01*
X178224476Y-64379761D01*
X178129238Y-64427380D01*
X177843523Y-64427380D01*
X177748285Y-64379761D01*
X177700666Y-64332142D01*
%TO.C,J6*%
X177736380Y-58708333D02*
X178450666Y-58708333D01*
X178593523Y-58755952D01*
X178688761Y-58851190D01*
X178736380Y-58994047D01*
X178736380Y-59089285D01*
X177736380Y-57803571D02*
X177736380Y-57994047D01*
X177784000Y-58089285D01*
X177831619Y-58136904D01*
X177974476Y-58232142D01*
X178164952Y-58279761D01*
X178545904Y-58279761D01*
X178641142Y-58232142D01*
X178688761Y-58184523D01*
X178736380Y-58089285D01*
X178736380Y-57898809D01*
X178688761Y-57803571D01*
X178641142Y-57755952D01*
X178545904Y-57708333D01*
X178307809Y-57708333D01*
X178212571Y-57755952D01*
X178164952Y-57803571D01*
X178117333Y-57898809D01*
X178117333Y-58089285D01*
X178164952Y-58184523D01*
X178212571Y-58232142D01*
X178307809Y-58279761D01*
%TO.C,J5*%
X169886380Y-74708333D02*
X170600666Y-74708333D01*
X170743523Y-74755952D01*
X170838761Y-74851190D01*
X170886380Y-74994047D01*
X170886380Y-75089285D01*
X169886380Y-73755952D02*
X169886380Y-74232142D01*
X170362571Y-74279761D01*
X170314952Y-74232142D01*
X170267333Y-74136904D01*
X170267333Y-73898809D01*
X170314952Y-73803571D01*
X170362571Y-73755952D01*
X170457809Y-73708333D01*
X170695904Y-73708333D01*
X170791142Y-73755952D01*
X170838761Y-73803571D01*
X170886380Y-73898809D01*
X170886380Y-74136904D01*
X170838761Y-74232142D01*
X170791142Y-74279761D01*
%TO.C,J4*%
X169736380Y-58708333D02*
X170450666Y-58708333D01*
X170593523Y-58755952D01*
X170688761Y-58851190D01*
X170736380Y-58994047D01*
X170736380Y-59089285D01*
X170069714Y-57803571D02*
X170736380Y-57803571D01*
X169688761Y-58041666D02*
X170403047Y-58279761D01*
X170403047Y-57660714D01*
%TO.C,D1*%
X153386380Y-64363095D02*
X152386380Y-64363095D01*
X152386380Y-64125000D01*
X152434000Y-63982142D01*
X152529238Y-63886904D01*
X152624476Y-63839285D01*
X152814952Y-63791666D01*
X152957809Y-63791666D01*
X153148285Y-63839285D01*
X153243523Y-63886904D01*
X153338761Y-63982142D01*
X153386380Y-64125000D01*
X153386380Y-64363095D01*
X153386380Y-62839285D02*
X153386380Y-63410714D01*
X153386380Y-63125000D02*
X152386380Y-63125000D01*
X152529238Y-63220238D01*
X152624476Y-63315476D01*
X152672095Y-63410714D01*
%TO.C,SW1*%
X159688761Y-72458333D02*
X159736380Y-72315476D01*
X159736380Y-72077380D01*
X159688761Y-71982142D01*
X159641142Y-71934523D01*
X159545904Y-71886904D01*
X159450666Y-71886904D01*
X159355428Y-71934523D01*
X159307809Y-71982142D01*
X159260190Y-72077380D01*
X159212571Y-72267857D01*
X159164952Y-72363095D01*
X159117333Y-72410714D01*
X159022095Y-72458333D01*
X158926857Y-72458333D01*
X158831619Y-72410714D01*
X158784000Y-72363095D01*
X158736380Y-72267857D01*
X158736380Y-72029761D01*
X158784000Y-71886904D01*
X158736380Y-71553571D02*
X159736380Y-71315476D01*
X159022095Y-71125000D01*
X159736380Y-70934523D01*
X158736380Y-70696428D01*
X159736380Y-69791666D02*
X159736380Y-70363095D01*
X159736380Y-70077380D02*
X158736380Y-70077380D01*
X158879238Y-70172619D01*
X158974476Y-70267857D01*
X159022095Y-70363095D01*
%TO.C,J3*%
X160886380Y-74708333D02*
X161600666Y-74708333D01*
X161743523Y-74755952D01*
X161838761Y-74851190D01*
X161886380Y-74994047D01*
X161886380Y-75089285D01*
X160886380Y-74327380D02*
X160886380Y-73708333D01*
X161267333Y-74041666D01*
X161267333Y-73898809D01*
X161314952Y-73803571D01*
X161362571Y-73755952D01*
X161457809Y-73708333D01*
X161695904Y-73708333D01*
X161791142Y-73755952D01*
X161838761Y-73803571D01*
X161886380Y-73898809D01*
X161886380Y-74184523D01*
X161838761Y-74279761D01*
X161791142Y-74327380D01*
%TO.C,R2*%
X168317333Y-64427380D02*
X167984000Y-63951190D01*
X167745904Y-64427380D02*
X167745904Y-63427380D01*
X168126857Y-63427380D01*
X168222095Y-63475000D01*
X168269714Y-63522619D01*
X168317333Y-63617857D01*
X168317333Y-63760714D01*
X168269714Y-63855952D01*
X168222095Y-63903571D01*
X168126857Y-63951190D01*
X167745904Y-63951190D01*
X168698285Y-63522619D02*
X168745904Y-63475000D01*
X168841142Y-63427380D01*
X169079238Y-63427380D01*
X169174476Y-63475000D01*
X169222095Y-63522619D01*
X169269714Y-63617857D01*
X169269714Y-63713095D01*
X169222095Y-63855952D01*
X168650666Y-64427380D01*
X169269714Y-64427380D01*
%TO.C,J2*%
X160186380Y-58708333D02*
X160900666Y-58708333D01*
X161043523Y-58755952D01*
X161138761Y-58851190D01*
X161186380Y-58994047D01*
X161186380Y-59089285D01*
X160281619Y-58279761D02*
X160234000Y-58232142D01*
X160186380Y-58136904D01*
X160186380Y-57898809D01*
X160234000Y-57803571D01*
X160281619Y-57755952D01*
X160376857Y-57708333D01*
X160472095Y-57708333D01*
X160614952Y-57755952D01*
X161186380Y-58327380D01*
X161186380Y-57708333D01*
%TO.C,D3*%
X171636380Y-64363095D02*
X170636380Y-64363095D01*
X170636380Y-64125000D01*
X170684000Y-63982142D01*
X170779238Y-63886904D01*
X170874476Y-63839285D01*
X171064952Y-63791666D01*
X171207809Y-63791666D01*
X171398285Y-63839285D01*
X171493523Y-63886904D01*
X171588761Y-63982142D01*
X171636380Y-64125000D01*
X171636380Y-64363095D01*
X170636380Y-63458333D02*
X170636380Y-62839285D01*
X171017333Y-63172619D01*
X171017333Y-63029761D01*
X171064952Y-62934523D01*
X171112571Y-62886904D01*
X171207809Y-62839285D01*
X171445904Y-62839285D01*
X171541142Y-62886904D01*
X171588761Y-62934523D01*
X171636380Y-63029761D01*
X171636380Y-63315476D01*
X171588761Y-63410714D01*
X171541142Y-63458333D01*
%TO.C,D2*%
X162636380Y-64363095D02*
X161636380Y-64363095D01*
X161636380Y-64125000D01*
X161684000Y-63982142D01*
X161779238Y-63886904D01*
X161874476Y-63839285D01*
X162064952Y-63791666D01*
X162207809Y-63791666D01*
X162398285Y-63839285D01*
X162493523Y-63886904D01*
X162588761Y-63982142D01*
X162636380Y-64125000D01*
X162636380Y-64363095D01*
X161731619Y-63410714D02*
X161684000Y-63363095D01*
X161636380Y-63267857D01*
X161636380Y-63029761D01*
X161684000Y-62934523D01*
X161731619Y-62886904D01*
X161826857Y-62839285D01*
X161922095Y-62839285D01*
X162064952Y-62886904D01*
X162636380Y-63458333D01*
X162636380Y-62839285D01*
%TO.C,J1*%
X151886380Y-74708333D02*
X152600666Y-74708333D01*
X152743523Y-74755952D01*
X152838761Y-74851190D01*
X152886380Y-74994047D01*
X152886380Y-75089285D01*
X152886380Y-73708333D02*
X152886380Y-74279761D01*
X152886380Y-73994047D02*
X151886380Y-73994047D01*
X152029238Y-74089285D01*
X152124476Y-74184523D01*
X152172095Y-74279761D01*
D11*
%TO.C,R1*%
X160269000Y-61397936D02*
X160269000Y-61852064D01*
X158799000Y-61397936D02*
X158799000Y-61852064D01*
%TO.C,R3*%
X176799000Y-61397936D02*
X176799000Y-61852064D01*
X178269000Y-61397936D02*
X178269000Y-61852064D01*
D12*
%TO.C,J6*%
X178216000Y-57100000D02*
G75*
G03*
X178216000Y-57100000I-100000J0D01*
G01*
D13*
X171459000Y-58850000D02*
X177466000Y-58850000D01*
X177466000Y-54150000D02*
X177466000Y-58850000D01*
X171459000Y-54150000D02*
X177466000Y-54150000D01*
X171459000Y-58850000D02*
X171459000Y-54150000D01*
%TO.C,J5*%
X177541000Y-73900000D02*
X177541000Y-78600000D01*
X177541000Y-78600000D02*
X171534000Y-78600000D01*
X177541000Y-73900000D02*
X171534000Y-73900000D01*
X171534000Y-78600000D02*
X171534000Y-73900000D01*
D12*
X170984000Y-75650000D02*
G75*
G03*
X170984000Y-75650000I-100000J0D01*
G01*
D13*
%TO.C,J4*%
X168466000Y-54150000D02*
X168466000Y-58850000D01*
X162459000Y-58850000D02*
X168466000Y-58850000D01*
X162459000Y-54150000D02*
X168466000Y-54150000D01*
X162459000Y-58850000D02*
X162459000Y-54150000D01*
D12*
X169216000Y-57100000D02*
G75*
G03*
X169216000Y-57100000I-100000J0D01*
G01*
D11*
%TO.C,D1*%
X153040000Y-62635000D02*
X157100000Y-62635000D01*
X153040000Y-60365000D02*
X153040000Y-62635000D01*
X157100000Y-60365000D02*
X153040000Y-60365000D01*
D13*
%TO.C,J3*%
X168541000Y-73900000D02*
X168541000Y-78600000D01*
X162534000Y-78600000D02*
X162534000Y-73900000D01*
X168541000Y-73900000D02*
X162534000Y-73900000D01*
X168541000Y-78600000D02*
X162534000Y-78600000D01*
D12*
X161984000Y-75650000D02*
G75*
G03*
X161984000Y-75650000I-100000J0D01*
G01*
D11*
%TO.C,R2*%
X169269000Y-61397936D02*
X169269000Y-61852064D01*
X167799000Y-61397936D02*
X167799000Y-61852064D01*
D13*
%TO.C,J2*%
X153459000Y-58850000D02*
X153459000Y-54150000D01*
X153459000Y-58850000D02*
X159466000Y-58850000D01*
X159466000Y-54150000D02*
X159466000Y-58850000D01*
X153459000Y-54150000D02*
X159466000Y-54150000D01*
D12*
X160216000Y-57100000D02*
G75*
G03*
X160216000Y-57100000I-100000J0D01*
G01*
D11*
%TO.C,D3*%
X171040000Y-60365000D02*
X171040000Y-62635000D01*
X175100000Y-60365000D02*
X171040000Y-60365000D01*
X171040000Y-62635000D02*
X175100000Y-62635000D01*
%TO.C,D2*%
X162040000Y-62635000D02*
X166100000Y-62635000D01*
X166100000Y-60365000D02*
X162040000Y-60365000D01*
X162040000Y-60365000D02*
X162040000Y-62635000D01*
D12*
%TO.C,J1*%
X152984000Y-75650000D02*
G75*
G03*
X152984000Y-75650000I-100000J0D01*
G01*
D13*
X153534000Y-78600000D02*
X153534000Y-73900000D01*
X159541000Y-73900000D02*
X153534000Y-73900000D01*
X159541000Y-73900000D02*
X159541000Y-78600000D01*
X159541000Y-78600000D02*
X153534000Y-78600000D01*
%TD*%
M02*
